<svg width="1258.000000" height="233.000000" viewBox="0 0 1258 233" fill="none" xmlns="http://www.w3.org/2000/svg" xmlns:xlink="http://www.w3.org/1999/xlink">
	<desc>
			Created with Pixso.
	</desc>
	<defs>
		<clipPath id="clip44_47">
			<rect id="dream-heng-bord-b-logo" width="1258.000000" height="233.000000" fill="white" fill-opacity="0"/>
		</clipPath>
	</defs>
	<rect id="dream-heng-bord-b-logo" width="1258.000000" height="233.000000" fill="#FFFFFF" fill-opacity="0"/>
	<g clip-path="url(#clip44_47)">
		<path id="矢量 2" d="M449.65 201.2L449.65 208.42L577.51 208.42L577.51 201.2C577.51 25.73 402.9 24 361.05 24C298.42 24 250.22 45.06 250.22 116.35C250.22 69.02 326.13 69.88 326.13 69.88C391.64 69.88 449.65 116.64 449.65 201.2ZM577.51 24L437.24 24C527.87 52.57 554.13 77.97 577.51 143.19L577.51 24ZM127.85 24.57L127.85 31.79C127.85 116.35 185.86 163.11 251.38 163.11C251.38 163.11 327.28 163.97 327.28 116.64C327.28 187.93 279.08 209 216.45 209C174.61 209 0 207.26 0 31.79L0 24.57L127.85 24.57ZM271.29 24.57L271.29 31.79C216.45 116.64 261.48 155.31 288.03 155.31C226.56 172.92 140.1 143.92 140.26 31.79L140.26 24.57L271.29 24.57ZM306.21 201.2L306.21 208.42L437.24 208.42L437.24 201.2C437.41 89.07 350.95 60.07 289.47 77.68C316.03 77.68 361.05 116.35 306.21 201.2ZM140.26 209L0 209L0 89.8C23.37 155.03 49.64 180.42 140.26 209Z" fill="#303A46" fill-opacity="1.000000" fill-rule="evenodd"/>
		<path id="矢量 2" d="M577.51 104.62L577.51 24L437.24 24C453.16 29.02 467.1 33.94 479.38 39C522.91 56.92 545.67 76.54 562.51 108.24C567.96 118.5 572.79 130.04 577.51 143.19L577.51 104.62ZM562.51 80.16L562.51 39L514.19 39Q530.37 48.06 542.43 58.52Q553.5 68.13 562.51 80.16ZM569.92 143.19C567.83 135.94 565.34 129.13 562.51 122.73C542.11 76.69 503.75 52.11 465.31 39C455.87 35.77 446.43 33.24 437.24 31.26C436.13 31.02 435.03 30.79 433.92 30.56C402.6 24.18 374.73 24 361.05 24C329.27 24 301.2 29.42 281.26 44.08C271.42 51.32 263.56 60.81 258.21 73.01C253.04 84.79 250.22 99.1 250.22 116.35C250.22 104.65 254.86 95.9 261.84 89.34C264.43 86.91 267.35 84.79 270.46 82.93C275.62 79.85 281.34 77.5 287.09 75.7C287.88 75.45 288.68 75.21 289.47 74.99C299.27 72.18 308.94 70.92 315.89 70.35C322.1 69.84 326.13 69.88 326.13 69.88C391.64 69.88 449.65 116.64 449.65 201.2L449.65 208.42L577.51 208.42L577.51 201.2C577.51 198.57 577.47 195.97 577.39 193.42C576.87 176.24 574.62 160.81 570.95 146.94C570.62 145.68 570.27 144.43 569.92 143.19ZM562.38 193.42Q560.61 138.27 533.34 102.64Q513.07 76.15 478.73 60.44Q431.87 39 361.05 39Q314.21 39 290.86 55.65Q287.56 58 284.69 60.76Q297.65 56.96 312.88 55.55Q320.78 54.82 326.3 54.89Q346.19 54.88 364.69 59.96Q371.7 61.88 378.51 64.53Q394.21 70.65 407.5 80.14Q415.69 85.99 422.96 93.12Q428.74 98.79 433.74 105.08Q445.94 120.43 453.51 139.47Q463.35 164.27 464.5 193.42L562.38 193.42ZM319.91 72.97C374.44 71.3 433.95 104.76 437.11 193.42C437.19 195.76 437.24 198.15 437.24 200.57L437.24 208.42L306.21 208.42L306.21 201.2C306.65 200.53 307.08 199.86 307.5 199.19C308.74 197.24 309.92 195.32 311.04 193.42C320.43 177.62 326.25 163.53 329.35 151.1C332.68 137.72 332.86 126.26 330.94 116.64C328.44 104.07 322.35 94.64 315.04 88.21C314.06 87.36 313.07 86.55 312.05 85.8C304.68 80.34 296.44 77.68 289.47 77.68C299.14 74.91 309.43 73.29 319.91 72.97ZM127.85 31.79C127.85 116.35 185.86 163.11 251.38 163.11C251.38 163.11 255.41 163.15 261.61 162.64C268.56 162.07 278.24 160.81 288.03 158C288.82 157.78 289.62 157.54 290.41 157.29C296.16 155.49 301.88 153.14 307.04 150.06C310.16 148.2 313.07 146.08 315.66 143.65C322.64 137.1 327.28 128.34 327.28 116.64C327.28 133.89 324.46 148.2 319.29 159.98C313.94 172.18 306.08 181.67 296.24 188.91C276.3 203.57 248.24 209 216.45 209C202.77 209 174.9 208.81 143.58 202.43C142.48 202.2 141.37 201.97 140.26 201.73C131.08 199.75 121.63 197.22 112.19 194C73.75 180.88 35.39 156.3 15 110.26C12.16 103.86 9.68 97.05 7.58 89.8C7.23 88.56 6.88 87.31 6.55 86.05C2.88 72.18 0.63 56.75 0.11 39.57C0.03 37.02 0 34.42 0 31.79L0 24.57L127.85 24.57L127.85 31.79ZM113 39.57Q114.15 68.72 124 93.52Q131.56 112.56 143.76 127.91Q148.76 134.2 154.54 139.87Q161.81 147 170 152.85Q183.29 162.34 198.99 168.46Q205.8 171.11 212.81 173.03Q231.31 178.11 251.2 178.11Q251.29 178.11 251.38 178.11Q269.88 178.11 287.28 173.74Q290.06 173.04 292.81 172.23Q289.94 174.99 286.64 177.34Q263.29 194 216.45 194Q145.63 194 98.77 172.56Q64.43 156.84 44.17 130.36Q16.9 94.72 15.12 39.57L113 39.57ZM0 128.37L0 209L140.26 209C124.34 203.98 110.4 199.05 98.12 194C54.59 176.07 31.83 156.45 15 124.75C9.54 114.49 4.71 102.95 0 89.8L0 128.37ZM15 152.83L15 194L63.32 194Q47.13 184.93 35.08 174.47Q24.01 164.86 15 152.83ZM262.46 144.78C255.15 138.35 249.06 128.92 246.56 116.35C244.64 106.73 244.82 95.27 248.15 81.9C251.25 69.46 257.07 55.37 266.46 39.57C267.59 37.67 268.77 35.75 270 33.8C270.42 33.13 270.85 32.46 271.29 31.79L271.29 24.57L140.26 24.57L140.26 32.42C140.26 34.84 140.31 37.23 140.39 39.57C143.55 128.23 203.06 161.69 257.59 160.02C268.07 159.7 278.36 158.08 288.03 155.31C281.1 155.31 272.92 152.68 265.57 147.28C264.52 146.5 263.48 145.67 262.46 144.78ZM242.25 144.48Q241.51 144.4 240.76 144.31Q221.44 142.01 205.54 133.4Q202.31 131.64 199.22 129.63Q192.43 125.21 186.67 119.73Q175.42 109.01 168.07 94.2Q156.6 71.09 155.4 39.57L249.16 39.57Q221.87 89.37 233.73 126.72Q234.37 128.73 235.12 130.71Q237.98 138.22 242.25 144.48ZM335.25 88.51Q339.52 94.77 342.38 102.28Q343.13 104.26 343.77 106.27Q355.63 143.63 328.34 193.42L422.1 193.42Q420.9 161.9 409.43 138.79Q402.08 123.99 390.83 113.27Q385.07 107.78 378.29 103.36Q375.19 101.35 371.96 99.59Q356.06 90.98 336.74 88.68Q336 88.59 335.25 88.51Z" fill="#303A46" fill-opacity="1.000000" fill-rule="evenodd"/>
		<path id="DREAM-PEP Design_" d="M643.94 29.79Q634.84 25.45 623.67 25.45L597.3 25.45L597.3 104.5L623.67 104.5Q635.32 104.5 644.6 99.8L644.6 99.8Q649.17 97.5 652.79 94.17Q656.55 90.71 659.29 86.14Q664.7 77.18 664.7 64.87Q664.7 52.55 659.29 43.64Q656.66 39.29 653.09 35.95Q649.34 32.46 644.55 30.09Q644.25 29.94 643.94 29.79ZM724.53 104.39L743.23 104.5L720.97 72.75Q726.66 70.29 730.29 66.06Q731.13 65.08 731.86 64Q732.84 62.56 733.57 61.01Q735.76 56.38 735.76 50.71Q735.76 45.36 733.8 40.87Q733.03 39.12 731.97 37.5Q731.25 36.39 730.42 35.39Q726.86 31.1 721.18 28.58Q714.17 25.45 704.89 25.45L677.55 25.45L677.55 104.5L693.21 104.5L693.21 75.99L705.31 75.99L724.53 104.39ZM767.19 71.11L799.28 71.11L799.28 57.61L767.19 57.61L767.19 39.05L803.05 39.05L803.05 25.45L751.53 25.45L751.53 104.5L804.23 104.5L804.23 90.78L767.19 90.78L767.19 71.11ZM886.22 104.5L854.24 25.45L840.52 25.45L809.54 104.5L825.18 104.5L831.88 86.46L862.67 86.46L869.58 104.5L886.22 104.5ZM973.48 25.45L961.59 25.45L934.69 66.37L907.69 25.45L895.27 25.45L895.27 104.5L910.09 104.5L910.09 53.29L930.26 83.43L938.49 83.43L958.58 53.53L958.58 104.5L973.48 104.5L973.48 25.45ZM1086.77 28.69Q1079.75 25.45 1070.37 25.45L1043.13 25.45L1043.13 104.5L1058.79 104.5L1058.79 77.5L1070.37 77.5Q1079.75 77.5 1086.77 74.3Q1092.31 71.78 1095.88 67.56Q1096.81 66.46 1097.6 65.23Q1098.37 64.07 1098.98 62.83Q1101.44 57.81 1101.44 51.58Q1101.44 44.96 1098.75 39.76Q1098.22 38.76 1097.6 37.81Q1096.79 36.56 1095.84 35.43Q1092.3 31.23 1086.77 28.69ZM1127.59 71.11L1159.68 71.11L1159.68 57.61L1127.59 57.61L1127.59 39.05L1163.44 39.05L1163.44 25.45L1111.93 25.45L1111.93 104.5L1164.63 104.5L1164.63 90.78L1127.59 90.78L1127.59 71.11ZM1221.23 28.69Q1214.21 25.45 1204.82 25.45L1177.59 25.45L1177.59 104.5L1193.25 104.5L1193.25 77.5L1204.82 77.5Q1214.21 77.5 1221.23 74.3Q1226.78 71.78 1230.34 67.56Q1231.27 66.46 1232.06 65.23Q1232.82 64.07 1233.43 62.83Q1235.91 57.81 1235.91 51.58Q1235.91 44.96 1233.21 39.76Q1232.68 38.76 1232.06 37.81Q1231.25 36.56 1230.3 35.43Q1226.76 31.23 1221.23 28.69ZM640.4 85.22Q633.69 91.1 621.82 91.1L612.96 91.1L612.96 38.74L621.82 38.74Q633.29 38.74 639.99 44.38Q640.68 44.96 641.31 45.59Q642.12 46.4 642.83 47.28Q648.19 53.91 648.19 64.87Q648.19 76.45 642.46 83.13Q641.95 83.74 641.39 84.3Q640.91 84.78 640.4 85.22ZM693.21 62.7L693.21 38.74L703.04 38.74Q710.06 38.74 714.59 41.66Q716.22 42.7 717.26 44.16Q719.13 46.77 719.13 50.71Q719.13 54.42 717.41 56.97Q716.32 58.59 714.54 59.75Q709.95 62.7 703.04 62.7L693.21 62.7ZM1080.39 61.04Q1075.98 64.21 1068.63 64.21L1058.79 64.21L1058.79 38.74L1068.63 38.74Q1075.98 38.74 1080.39 42.03Q1081.9 43.15 1082.9 44.62Q1084.81 47.45 1084.81 51.58Q1084.81 55.75 1082.86 58.55Q1081.87 59.97 1080.39 61.04ZM1214.85 61.04Q1210.43 64.21 1203.09 64.21L1193.25 64.21L1193.25 38.74L1203.09 38.74Q1210.43 38.74 1214.85 42.03Q1216.36 43.15 1217.36 44.62Q1219.28 47.45 1219.28 51.58Q1219.28 55.75 1217.31 58.55Q1216.32 59.97 1214.85 61.04ZM847.01 45.3L857.58 73.07L836.75 73.07L847.01 45.3ZM988.07 65.6L988.07 78.15L1028.56 78.15L1028.56 65.6L988.07 65.6ZM792.68 137.02Q793.92 137.42 795.28 137.42Q796.83 137.42 798.2 136.94Q800.08 136.27 801.64 134.68Q803.26 133.03 803.91 131.05Q804.35 129.72 804.35 128.25Q804.35 126.74 803.89 125.39Q803.24 123.46 801.64 121.84Q800.06 120.22 798.16 119.55Q796.8 119.07 795.28 119.07Q793.58 119.07 792.11 119.65Q790.41 120.32 789.01 121.76Q787.8 123.02 787.15 124.52Q786.42 126.23 786.42 128.25Q786.42 129.8 786.9 131.19Q787.54 133.09 789.06 134.68Q790.7 136.37 792.68 137.02ZM643.94 125.79Q634.84 121.45 623.67 121.45L597.3 121.45L597.3 200.5L623.67 200.5Q635.32 200.5 644.6 195.8L644.6 195.8Q649.17 193.5 652.79 190.17Q656.55 186.71 659.29 182.14Q664.7 173.18 664.7 160.87Q664.7 148.55 659.29 139.64Q656.66 135.29 653.09 131.95Q649.34 128.46 644.55 126.09Q644.25 125.94 643.94 125.79ZM640.4 181.22Q633.69 187.1 621.82 187.1L612.96 187.1L612.96 134.74L621.82 134.74Q633.29 134.74 639.99 140.38Q640.68 140.96 641.31 141.59Q642.12 142.4 642.83 143.28Q648.19 149.91 648.19 160.87Q648.19 172.45 642.46 179.13Q641.95 179.74 641.39 180.3Q640.91 180.78 640.4 181.22ZM713.37 145.93Q707.94 143.15 701.09 143.15Q696.36 143.15 692.06 144.5Q689.6 145.28 687.27 146.5Q685.48 147.44 683.87 148.64Q679.78 151.7 676.94 156.44Q673.01 163.03 673.01 172.31Q673.01 181.7 676.94 188.39Q679.73 193.11 683.77 196.17Q685.46 197.45 687.38 198.44Q689.58 199.58 691.91 200.33Q696.43 201.79 701.43 201.79Q708.29 201.79 714.02 199.26Q714.89 198.88 715.72 198.44Q720.18 196.12 722.64 192.45Q723.73 190.83 724.43 188.95L713.4 182.46Q712.24 184.88 710.36 186.44Q709.64 187.03 708.82 187.5Q708.59 187.62 708.36 187.74Q705.57 189.16 702.07 189.16Q698.37 189.16 695.51 187.6Q694.28 186.93 693.21 185.97Q689.65 182.78 688.67 176.53L725.82 176.53Q726.48 172.97 726.48 169.49Q726.48 161.74 723.29 155.75Q721.46 152.29 718.77 149.73Q716.78 147.84 714.33 146.44Q713.86 146.17 713.37 145.93ZM776.94 191.91Q778.86 188.41 778.86 183.86Q778.86 178.63 776.32 175.4Q776.23 175.29 776.14 175.18Q774.36 173 772.11 171.56Q770.96 170.82 769.68 170.28Q765.91 168.64 760.06 167.01Q754.57 165.51 751.96 164.16Q750.37 163.32 749.76 162.01Q749.38 161.2 749.38 160.21Q749.38 159.1 749.84 158.23Q750.32 157.33 751.3 156.7Q753.25 155.46 756.5 155.46Q760.29 155.46 763 157.17Q765.77 158.92 767.41 162.47L778.33 156.33Q777.86 154.49 776.97 152.87Q775 149.25 770.97 146.76Q765.15 143.15 756.71 143.15Q750.56 143.15 745.37 145.31Q741.22 147.05 738.41 150.04Q737.72 150.78 737.12 151.58Q736.27 152.71 735.65 153.95Q734.03 157.22 734.03 161.29Q734.03 165.75 736.15 168.7Q736.4 169.04 736.67 169.36Q738.33 171.26 740.36 172.62Q741.59 173.43 742.94 174.05Q746.56 175.66 752.28 177.37Q758.03 179.01 760.72 180.46Q762.36 181.34 763 182.7Q763.41 183.57 763.41 184.62Q763.41 185.75 762.94 186.63Q762.43 187.61 761.35 188.29Q759.32 189.58 755.86 189.58Q751.87 189.58 748.73 187.94Q748.23 187.67 747.74 187.36Q746.44 186.53 745.4 185.44Q743.68 183.65 742.68 181.17L731.76 187.52Q732.64 190.12 734.15 192.27Q736.52 195.69 740.47 198.02Q746.9 201.79 755.76 201.79Q766.02 201.79 772.42 196.99Q775.34 194.81 776.94 191.91ZM870.76 194.77L870.76 144.54L857.58 144.54Q857.47 148.34 856.74 152.77Q854.29 148.54 850.64 146.2Q850.08 145.84 849.49 145.52Q848.94 145.23 848.37 144.97Q844.37 143.15 839.54 143.15Q836.46 143.15 833.56 143.87Q830.05 144.74 826.81 146.65Q825.79 147.26 824.83 147.96Q820.25 151.31 817.24 156.81Q813.63 163.45 813.63 172.52Q813.63 181.48 817.24 188.13Q820.25 193.63 824.83 196.98Q825.79 197.68 826.81 198.28Q830.05 200.2 833.56 201.07Q836.46 201.79 839.54 201.79Q845.86 201.79 850.41 198.95Q853.49 197.03 855.76 193.8Q855.66 204.27 852.36 208.96Q851.85 209.68 851.24 210.3Q847.84 213.68 841.07 213.68Q834.85 213.68 830.84 210.69Q828.26 208.76 826.6 205.58L815.05 212.15Q816.11 214.68 817.71 216.8Q820.49 220.5 824.91 222.96Q831.9 226.84 841.07 226.84Q849.92 226.84 856.75 223.13Q859.67 221.54 862.22 219.27Q862.33 219.18 862.43 219.08Q870.76 211.52 870.76 194.77ZM927.26 146.03Q922.72 143.15 916.35 143.15Q909.28 143.15 904.49 146.44Q900.78 148.99 898.42 153.51Q897.97 151.14 897.44 144.54L884.26 144.54L884.26 200.5L899.29 200.5L899.29 172.41Q899.29 164.85 902.56 160.71Q904.13 158.72 906.19 157.68Q908.43 156.54 911.26 156.54Q914.35 156.54 916.5 157.96Q921.41 161.21 921.41 171.89L921.41 200.5L936.44 200.5L936.44 167.01Q936.44 155.35 931.04 149.26Q929.34 147.34 927.26 146.03ZM787.93 200.5L802.95 200.5L802.95 144.54L787.93 144.54L787.93 200.5ZM695.86 156.35Q698.04 155.35 700.67 155.35Q703.47 155.35 705.66 156.52Q706.84 157.15 707.84 158.12Q707.94 158.21 708.03 158.31Q710.73 161.04 711.14 166.03L688.88 166.03Q689.95 161.03 693.02 158.25Q693.06 158.21 693.1 158.18Q694.37 157.03 695.86 156.35ZM847.45 187.96Q845.12 188.95 842.37 188.95Q839.12 188.95 836.56 187.62Q834.44 186.52 832.79 184.52Q829.18 180.09 829.18 172.52Q829.18 164.95 832.79 160.76Q834.29 159.03 836.16 158.01Q838.87 156.54 842.37 156.54Q845.31 156.54 847.77 157.63Q850.01 158.61 851.86 160.5Q855.76 164.43 855.76 172.52Q855.76 180.72 851.86 184.83Q849.88 186.93 847.45 187.96Z" fill="#303A46" fill-opacity="1.000000" fill-rule="evenodd"/>
		<path id="DREAM-PEP Design_" d="M942.48 221.67L942.48 209.14L994.63 209.14L994.63 221.67L942.48 221.67Z" fill="#FF3546" fill-opacity="1.000000" fill-rule="evenodd"/>
	</g>
</svg>
