<svg width="524.500000" height="172.000000" viewBox="0 0 524.5 172" fill="none" xmlns="http://www.w3.org/2000/svg" xmlns:xlink="http://www.w3.org/1999/xlink">
	<desc>
			Created with Pixso.
	</desc>
	<defs/>
	<path id="VRCub-white" d="M99.5 0L80 0L24.5 78L24.5 0L0 0L0 125L24.5 125L99.5 25.5L174 25.5L174 0L99.5 0ZM274.5 0L200 0L200 25.5L274.5 25.5L274.5 0ZM425 0L400 0L400 125L474.5 125L474.5 49.5L425 49.5L425 0ZM174 49.5L99.5 49.5L99.5 125L124.5 125L124.5 92.5L156.5 125L174 125L174 106.5L140.5 74L174 74L174 49.5ZM223.5 49.5L200 49.5L200 125L274.5 125L274.5 100L223.5 100L223.5 49.5ZM300 49.5L300 125L374 125L374 49.5L349.5 49.5L349.5 100L325 100L325 49.5L300 49.5ZM450 100L425 100L425 74.75L450 74.75L450 100ZM524.5 100L499.5 100L499.5 125L524.5 125L524.5 100Z" fill="#FFFFFF" fill-opacity="1.000000" fill-rule="evenodd"/>
	<path id="VRCub-white" d="M99.5 0L99.5 25.5L24.5 125L0 125L0 0L24.5 0L24.5 78L80 0L99.5 0L174 0L174 25.5L99.5 25.5M174 49.5L174 74L140.5 74L174 106.5L174 125L156.5 125L124.5 92.5L124.5 125L99.5 125L99.5 49.5L174 49.5ZM274.5 0L274.5 25.5L200 25.5L200 0L274.5 0ZM223.5 49.5L223.5 100L274.5 100L274.5 125L200 125L200 49.5L223.5 49.5ZM300 125L374 125L374 49.5L349.5 49.5L349.5 100L325 100L325 49.5L300 49.5L300 125ZM425 0L425 49.5L450 49.5L474.5 49.5L474.5 125L400 125L400 49.5L400 0L425 0ZM450 100L450 74.75L425 74.75L425 100L450 100ZM524.5 100L524.5 125L499.5 125L499.5 100L524.5 100Z" stroke="#000000" stroke-opacity="0" stroke-width="1.000000"/>
	<path id="由VRCub文档编辑组编辑与维护" d="M173.68 141.59L173.68 145.42L168.62 145.42C166.94 150.17 164.7 154.03 161.82 157.23C165.22 159.87 169.38 161.79 174.3 162.94C173.41 163.79 172.26 165.51 171.66 166.61C166.48 165.22 162.23 163.04 158.75 160.14C155.13 163.1 150.71 165.28 145.4 166.8C144.96 165.87 143.81 164.03 143.02 163.14C148.17 161.85 152.42 159.97 155.85 157.3C152.88 154.03 150.61 150.07 148.83 145.42L143.65 145.42L143.65 141.59L157.57 141.59C157.21 140.24 156.48 138.39 155.73 136.93L159.91 135.72C160.77 137.23 161.76 139.34 162.15 140.7L159.32 141.59L173.68 141.59ZM224.89 150L239.11 150L239.11 163.54C239.11 164.75 238.98 165.51 238.26 166.01C237.6 166.5 236.73 166.57 235.65 166.57C235.55 165.71 235.25 164.53 234.89 163.79L235.95 163.79C236.15 163.79 236.21 163.73 236.21 163.46L236.21 159.64L234.86 159.64L234.86 165.81L232.48 165.81L232.48 159.64L231.13 159.64L231.13 165.87L228.75 165.87L228.75 159.64L227.2 159.64L227.2 166.53L224.23 166.53L224.23 156.41C223.63 160 222.61 163.6 220.9 166.4C220.27 165.78 218.72 164.59 217.93 164.23C218.59 163.17 219.11 162.08 219.54 160.89C216.28 162.41 212.81 163.93 209.97 165.18L209.08 161.65C211.53 160.8 215.26 159.31 218.82 157.82L219.57 160.8C221.23 156.11 221.4 150.53 221.4 146.5L221.4 139.41L228.59 139.41C228.29 138.55 227.93 137.63 227.57 136.87L231.36 135.78C231.95 136.9 232.55 138.32 232.91 139.41L238.65 139.41L238.65 148.09L224.96 148.09C224.92 148.72 224.89 149.34 224.89 150ZM323.89 150L338.11 150L338.11 163.54C338.11 164.75 337.98 165.51 337.26 166.01C336.6 166.5 335.73 166.57 334.65 166.57C334.55 165.71 334.25 164.53 333.89 163.79L334.95 163.79C335.15 163.79 335.21 163.73 335.21 163.46L335.21 159.64L333.86 159.64L333.86 165.81L331.48 165.81L331.48 159.64L330.13 159.64L330.13 165.87L327.75 165.87L327.75 159.64L326.2 159.64L326.2 166.53L323.23 166.53L323.23 156.41C322.63 160 321.61 163.6 319.9 166.4C319.27 165.78 317.72 164.59 316.93 164.23C317.59 163.17 318.11 162.08 318.54 160.89C315.28 162.41 311.81 163.93 308.97 165.18L308.08 161.65C310.53 160.8 314.26 159.31 317.82 157.82L318.57 160.8C320.23 156.11 320.4 150.53 320.4 146.5L320.4 139.41L327.59 139.41C327.29 138.55 326.93 137.63 326.57 136.87L330.36 135.78C330.95 136.9 331.55 138.32 331.91 139.41L337.65 139.41L337.65 148.09L323.96 148.09C323.92 148.72 323.89 149.34 323.89 150ZM220.53 144.42C219.05 147.53 217.1 150.69 215.12 153.47L219.18 152.58C219.15 153.57 219.28 154.99 219.38 155.75C212.35 157.46 211.1 157.89 210.37 158.36C210.2 157.7 209.61 156.04 209.25 155.12C210.01 154.96 210.7 154.19 211.65 152.94C212.09 152.41 212.91 151.19 213.9 149.57C211.36 149.9 210.6 150.11 210.11 150.33C209.91 149.61 209.38 147.92 208.95 146.96C209.58 146.8 210.08 146.08 210.74 144.99C211.4 143.93 213.31 139.81 214.3 135.91L217.96 137.2C216.8 140.37 215.16 143.73 213.44 146.44L215.81 146.27C216.38 145.09 216.97 143.83 217.5 142.64L220.53 144.42ZM288.18 144.79C286.34 147.86 284.12 150.96 281.85 153.63L287.65 152.67C287.52 153.63 287.49 155.08 287.52 155.84C278.94 157.49 277.59 157.89 276.7 158.39C276.53 157.66 275.97 156.04 275.57 155.12C276.41 154.92 277.16 154.16 278.28 153.01C278.78 152.44 279.84 151.16 281.05 149.54C277.82 149.9 276.99 150.11 276.47 150.36C276.27 149.64 275.68 147.89 275.28 146.9C275.94 146.74 276.5 146.01 277.26 144.92C278.02 143.9 280.3 139.78 281.55 135.91L285.05 137.56C283.73 140.63 281.92 143.86 280 146.54L283.24 146.27C283.93 145.15 284.62 144 285.21 142.88L288.18 144.79ZM319.53 144.42C318.05 147.53 316.1 150.69 314.12 153.47L318.18 152.58C318.15 153.57 318.28 154.99 318.38 155.75C311.35 157.46 310.1 157.89 309.37 158.36C309.2 157.7 308.61 156.04 308.25 155.12C309.01 154.96 309.7 154.19 310.65 152.94C311.09 152.41 311.91 151.19 312.9 149.57C310.36 149.9 309.6 150.11 309.11 150.33C308.91 149.61 308.38 147.92 307.95 146.96C308.57 146.8 309.07 146.08 309.74 144.99C310.4 143.93 312.31 139.81 313.3 135.91L316.96 137.2C315.8 140.37 314.16 143.73 312.44 146.44L314.81 146.27C315.38 145.09 315.97 143.83 316.5 142.64L319.53 144.42ZM419.43 144.39C417.68 147.59 415.53 150.8 413.26 153.57L418.83 152.67C418.7 153.67 418.67 155.15 418.7 155.95C410.55 157.49 409.2 157.86 408.34 158.39C408.17 157.66 407.58 156.01 407.18 155.12C408.01 154.92 408.74 154.13 409.76 152.94C410.25 152.41 411.21 151.16 412.26 149.61C409.36 149.94 408.57 150.14 408.08 150.36C407.87 149.64 407.28 147.89 406.85 146.9C407.54 146.74 408.11 146.05 408.83 144.96C409.56 143.93 411.73 139.81 412.89 135.94L416.39 137.59C415.17 140.66 413.35 143.9 411.54 146.54L414.34 146.34C415.07 145.09 415.76 143.8 416.36 142.52L419.43 144.39ZM184.5 147.56C185.49 148.78 188.1 152.55 188.69 153.43L186.48 156.44C186.08 155.38 185.29 153.87 184.5 152.41L184.5 166.83L180.81 166.83L180.81 153.9C179.88 156.74 178.82 159.38 177.57 161.16C177.2 160.03 176.35 158.48 175.79 157.53C177.63 154.92 179.35 150.36 180.21 146.47L176.58 146.47L176.58 142.84L180.81 142.84L180.81 136.05L184.5 136.05L184.5 142.84L188.23 142.84L188.23 146.47L184.5 146.47L184.5 147.56ZM254.82 156.01L255.02 159.38L252.32 159.9L252.32 166.77L248.72 166.77L248.72 160.56C246.64 160.96 244.62 161.32 242.91 161.62L242.12 157.86C243.9 157.62 246.21 157.3 248.72 156.93L248.72 153.24L246.11 153.24C245.06 153.24 243.86 153.43 243.6 153.73C243.41 153.04 242.81 151.32 242.41 150.39C243.11 150.2 243.57 149.28 244.1 147.83C244.36 147.13 244.92 145.45 245.52 143.34L242.45 143.34L242.45 139.64L246.37 139.64C246.64 138.46 246.84 137.23 247 136.05L250.76 136.74C250.57 137.69 250.4 138.65 250.13 139.64L254.79 139.64L254.79 143.34L249.11 143.34C248.42 145.62 247.63 147.79 246.84 149.7L248.72 149.7L248.72 145.09L252.32 145.09L252.32 149.7L254.32 149.7L254.32 153.24L252.32 153.24L252.32 156.37L254.82 156.01ZM353.82 156.01L354.02 159.38L351.32 159.9L351.32 166.77L347.72 166.77L347.72 160.56C345.64 160.96 343.62 161.32 341.91 161.62L341.12 157.86C342.9 157.62 345.21 157.3 347.72 156.93L347.72 153.24L345.11 153.24C344.06 153.24 342.86 153.43 342.6 153.73C342.41 153.04 341.81 151.32 341.41 150.39C342.11 150.2 342.57 149.28 343.1 147.83C343.36 147.13 343.92 145.45 344.52 143.34L341.45 143.34L341.45 139.64L345.37 139.64C345.64 138.46 345.84 137.23 346 136.05L349.76 136.74C349.57 137.69 349.4 138.65 349.13 139.64L353.79 139.64L353.79 143.34L348.11 143.34C347.42 145.62 346.63 147.79 345.84 149.7L347.72 149.7L347.72 145.09L351.32 145.09L351.32 149.7L353.32 149.7L353.32 153.24L351.32 153.24L351.32 156.37L353.82 156.01ZM18.37 136.08L18.37 142.32L29.72 142.32L29.72 166.83L25.6 166.83L25.6 165.12L7.32 165.12L7.32 166.86L3.39 166.86L3.39 142.32L14.32 142.32L14.32 136.08L18.37 136.08ZM448.46 150.6C449.49 150.33 450.54 150.07 451.53 149.78L452.06 153.34C450.9 153.7 449.69 154.06 448.46 154.39L448.46 162.28C448.46 164.16 448.17 165.22 447.08 165.84C446.05 166.53 444.54 166.67 442.36 166.67C442.23 165.61 441.77 163.9 441.27 162.81C442.46 162.84 443.65 162.84 444.07 162.81C444.48 162.81 444.6 162.67 444.6 162.25L444.6 155.48C443.25 155.84 442.03 156.17 440.84 156.5L439.99 152.71C441.3 152.41 442.89 152.05 444.6 151.62L444.6 146.01L440.51 146.01L440.51 142.28L444.6 142.28L444.6 136.08L448.46 136.08L448.46 142.28L451.73 142.28L451.73 146.01L448.46 146.01L448.46 150.6ZM194.99 136.17L198.76 136.17L198.76 148.22L205.72 148.22L205.72 166.44L201.86 166.44L201.86 165.05L187.27 165.05L187.27 161.29L201.86 161.29L201.86 158.28L188.49 158.28L188.49 154.79L201.86 154.79L201.86 151.95L188.03 151.95L188.03 148.22L194.99 148.22L194.99 136.17ZM432.53 161.1L437.91 161.1L437.91 164.75L424.87 164.75L424.87 166.9L421.18 166.9L421.18 149.94C420.75 150.5 420.28 151.06 419.82 151.59C419.49 150.6 418.67 148.85 418.14 147.92C420.61 144.92 422.83 139.97 423.85 136.17L427.61 137.23C427.08 138.79 426.48 140.33 425.76 141.92L430.02 141.92C429.59 140.63 428.76 138.92 427.98 137.59L431.3 136.21C432.26 137.63 433.22 139.54 433.65 140.8L431.21 141.92L437.47 141.92L437.47 145.45L432.53 145.45L432.53 148.32L436.72 148.32L436.72 151.82L432.53 151.82L432.53 154.59L436.78 154.59L436.78 158.12L432.53 158.12L432.53 161.1ZM464.7 140.73L462.43 141.65L469.92 141.65L469.92 155.48L466.02 155.48L466.02 153.76L457.15 153.76C456.82 158.32 455.69 163.5 452.59 166.97C452 166.14 450.35 164.69 449.45 164.16C452.98 160.17 453.35 154.42 453.35 150.03L453.35 141.65L460.74 141.65C460.25 140.37 459.32 138.75 458.43 137.46L461.97 136.17C463.09 137.56 464.21 139.45 464.7 140.73ZM384.15 143.8C383.85 145.35 383.55 146.87 383.26 148.28L403.19 148.28C403.19 148.28 403.12 149.48 403.02 150C402.2 159.31 401.34 163.24 399.76 164.79C398.67 165.95 397.58 166.24 395.83 166.4C394.48 166.5 392.1 166.47 389.69 166.37C389.63 165.22 389 163.57 388.18 162.44C390.78 162.67 393.45 162.67 394.57 162.67C395.34 162.67 395.86 162.64 396.36 162.28C397.45 161.46 398.24 158.19 398.83 151.92L381.71 151.92L378.31 151.89C379.36 147.92 380.62 141.53 381.34 136.57L385.37 136.97C385.2 137.96 385.04 138.98 384.84 140.03L402.33 140.03L402.33 143.8L384.15 143.8ZM256.41 137L270.73 137L270.73 144.6L256.41 144.6L256.41 137ZM355.41 137L369.73 137L369.73 144.6L355.41 144.6L355.41 137ZM303.27 137.66L303.27 162.74L305.91 162.74L305.91 166.28L286.86 166.28L286.86 162.74L289.77 162.74L289.77 137.66L303.27 137.66ZM190.97 138.06C192.05 140.43 193.25 143.47 193.84 145.48L190.51 146.83C190.01 144.79 188.82 141.59 187.8 139.21L190.97 138.06ZM199.68 146.05C200.74 144 201.95 140.66 202.55 138.19L206.31 139.15C205.19 141.95 203.87 145.02 202.78 147L199.68 146.05ZM135.37 146.78Q134.34 146.47 133.22 146.47Q131.9 146.47 130.76 146.92Q130.52 147.01 130.29 147.12Q129.97 147.27 129.66 147.47Q128.73 148.08 128.04 149.05L128.04 138.88L123.45 138.88L123.45 164L127.47 164Q127.51 163.3 127.74 161.42Q128.42 162.59 129.43 163.29Q129.73 163.5 130.06 163.67Q130.37 163.82 130.7 163.95Q131.88 164.39 133.22 164.39Q134.34 164.39 135.37 164.08Q136.25 163.82 137.06 163.33Q137.36 163.16 137.64 162.95Q139 161.93 139.87 160.25Q140.91 158.22 140.91 155.45Q140.91 152.67 139.87 150.63Q138.99 148.9 137.59 147.88Q137.34 147.69 137.06 147.53Q136.25 147.04 135.37 146.78ZM94.25 159.42Q93.16 160 91.76 160Q90.57 160 89.54 159.59Q88.98 159.36 88.47 159.02Q88.43 158.99 88.39 158.96Q87 157.97 86.17 156.18Q85.34 154.33 85.34 151.89Q85.34 149.45 86.17 147.62Q86.99 145.84 88.37 144.86Q88.42 144.82 88.47 144.79Q88.99 144.43 89.56 144.2Q90.58 143.8 91.76 143.8Q93.14 143.8 94.22 144.37Q94.51 144.52 94.79 144.72Q96.06 145.65 96.82 147.29L100.81 144.99Q100.57 144.33 100.22 143.73Q99.28 142.12 97.54 140.98Q97.34 140.84 97.12 140.72Q94.88 139.41 91.87 139.41Q89.8 139.41 87.95 140.06Q86.94 140.41 86 140.96Q85.12 141.48 84.37 142.14Q82.84 143.46 81.81 145.35Q80.28 148.19 80.28 151.89Q80.28 155.58 81.83 158.44Q82.93 160.46 84.58 161.83Q85.25 162.39 86.02 162.84Q86.9 163.36 87.84 163.7Q89.73 164.39 91.87 164.39Q94.9 164.39 97.16 163.06Q97.35 162.95 97.54 162.83Q99.28 161.68 100.22 160.07Q100.57 159.47 100.81 158.82L96.82 156.5Q96.06 158.15 94.79 159.08Q94.53 159.27 94.25 159.42ZM260 141.82L266.9 141.82L266.9 139.78L260 139.78L260 141.82ZM359 141.82L365.9 141.82L365.9 139.78L359 139.78L359 141.82ZM45.1 157.3L38.63 139.84L33.2 139.84L42.96 164L47.02 164L56.42 139.84L51.31 139.84L45.1 157.3ZM73.55 163.96L79.26 164L72.46 154.3Q74.2 153.54 75.31 152.25Q75.57 151.95 75.79 151.62Q76.09 151.18 76.31 150.71Q76.98 149.29 76.98 147.56Q76.98 145.93 76.38 144.55Q76.15 144.02 75.82 143.52Q75.6 143.19 75.35 142.88Q74.26 141.57 72.53 140.8Q70.38 139.84 67.55 139.84L59.19 139.84L59.19 164L63.98 164L63.98 155.29L67.68 155.29L73.55 163.96ZM299.38 145.98L299.38 141.23L293.49 141.23L293.49 145.98L299.38 145.98ZM235.02 144.92L235.02 142.58L224.96 142.58L224.96 144.92L235.02 144.92ZM334.02 144.92L334.02 142.58L323.96 142.58L323.96 144.92L334.02 144.92ZM63.98 151.23L63.98 143.9L66.98 143.9Q69.13 143.9 70.51 144.8Q71.01 145.11 71.33 145.56Q71.9 146.36 71.9 147.56Q71.9 148.69 71.37 149.48Q71.04 149.97 70.5 150.32Q69.1 151.23 66.98 151.23L63.98 151.23ZM457.28 145.15L457.28 150.03L466.02 150.03L466.02 145.15L457.28 145.15ZM158.83 154.56C161.1 152.05 162.92 149.05 164.2 145.42L152.88 145.42C154.31 148.88 156.28 151.95 158.83 154.56ZM424.87 148.32L428.89 148.32L428.89 145.45L424.87 145.45L424.87 148.32ZM270.4 159.6L272.87 159.41L272.84 162.61L270.4 162.84L270.4 166.83L266.77 166.83L266.77 163.14C262.31 163.54 258.02 163.9 254.76 164.16L254.16 160.72L256.57 160.6L256.57 149.11L254.76 149.11L254.76 145.94L272.54 145.94L272.54 149.11L270.4 149.11L270.4 159.6ZM369.4 159.6L371.87 159.41L371.84 162.61L369.4 162.84L369.4 166.83L365.77 166.83L365.77 163.14C361.31 163.54 357.02 163.9 353.76 164.16L353.16 160.72L355.57 160.6L355.57 149.11L353.76 149.11L353.76 145.94L371.54 145.94L371.54 149.11L369.4 149.11L369.4 159.6ZM14.32 151.78L14.32 146.27L7.32 146.27L7.32 151.78L14.32 151.78ZM25.6 151.78L25.6 146.27L18.37 146.27L18.37 151.78L25.6 151.78ZM119.16 146.9L114.57 146.9L114.57 155.45Q114.57 157.76 113.55 159.05Q113.04 159.68 112.38 160Q111.71 160.33 110.88 160.33Q109.99 160.33 109.36 159.92Q107.84 158.95 107.84 155.62L107.84 146.9L103.25 146.9L103.25 157.13Q103.25 160.69 104.9 162.55Q105.37 163.07 105.94 163.45Q107.37 164.39 109.42 164.39Q111.17 164.39 112.54 163.66Q112.57 163.65 112.59 163.63Q112.79 163.52 112.98 163.4Q114.1 162.65 114.83 161.32Q114.97 162.01 115.1 164L119.16 164L119.16 146.9ZM266.77 150.93L266.77 149.11L260.16 149.11L260.16 150.93L266.77 150.93ZM365.77 150.93L365.77 149.11L359.16 149.11L359.16 150.93L365.77 150.93ZM299.38 149.48L293.49 149.48L293.49 154.3L299.38 154.3L299.38 149.48ZM133.85 160.09Q133.1 160.47 132.16 160.47Q131.37 160.47 130.68 160.19Q129.89 159.88 129.24 159.19Q128.04 157.92 128.04 155.45Q128.04 152.97 129.22 151.77Q129.74 151.24 130.37 150.95Q131.18 150.57 132.16 150.57Q133.25 150.57 134.08 151.03Q134.63 151.34 135.06 151.85Q136.15 153.14 136.15 155.45Q136.15 157.76 135.05 159.11Q134.53 159.75 133.85 160.09ZM424.87 154.59L428.89 154.59L428.89 151.82L424.87 151.82L424.87 154.59ZM227.2 153.14L227.2 156.67L228.75 156.67L228.75 153.14L227.2 153.14ZM231.13 153.14L231.13 156.67L232.48 156.67L232.48 153.14L231.13 153.14ZM234.86 153.14L234.86 156.67L236.21 156.67L236.21 153.14L234.86 153.14ZM326.2 153.14L326.2 156.67L327.75 156.67L327.75 153.14L326.2 153.14ZM330.13 153.14L330.13 156.67L331.48 156.67L331.48 153.14L330.13 153.14ZM333.86 153.14L333.86 156.67L335.21 156.67L335.21 153.14L333.86 153.14ZM266.77 153.67L260.16 153.67L260.16 155.45L266.77 155.45L266.77 153.67ZM365.77 153.67L359.16 153.67L359.16 155.45L365.77 155.45L365.77 153.67ZM374.81 155.38L395.31 155.38L395.31 159.14L374.81 159.14L374.81 155.38ZM14.32 155.62L7.32 155.62L7.32 161.22L14.32 161.22L14.32 155.62ZM18.37 155.62L18.37 161.22L25.6 161.22L25.6 155.62L18.37 155.62ZM299.38 157.76L293.49 157.76L293.49 162.74L299.38 162.74L299.38 157.76ZM428.89 158.12L424.87 158.12L424.87 161.1L428.89 161.1L428.89 158.12ZM266.77 158.19L260.16 158.19L260.16 160.33C262.21 160.2 264.49 160.03 266.77 159.84L266.77 158.19ZM365.77 158.19L359.16 158.19L359.16 160.33C361.21 160.2 363.49 160.03 365.77 159.84L365.77 158.19ZM275.65 161.39C278.52 160.83 282.83 159.87 287 158.88L287.43 162.12C283.57 163.24 279.54 164.29 276.34 165.12L275.65 161.39ZM419.65 162.31C415.6 163.4 411.27 164.53 407.97 165.41L407.25 161.68C410.25 161.13 414.88 160.03 419.29 159.05L419.65 162.31Z" fill="#FFFFFF" fill-opacity="1.000000" fill-rule="evenodd"/>
</svg>
