<svg width="524.500000" height="125.000000" viewBox="0 0 524.5 125" fill="none" xmlns="http://www.w3.org/2000/svg" xmlns:xlink="http://www.w3.org/1999/xlink">
	<desc>
			Created with Pixso.
	</desc>
	<defs/>
	<path id="VRCub-white" d="M99.5 0L80 0L24.5 78L24.5 0L0 0L0 125L24.5 125L99.5 25.5L174 25.5L174 0L99.5 0ZM274.5 0L200 0L200 25.5L274.5 25.5L274.5 0ZM425 0L400 0L400 125L474.5 125L474.5 49.5L425 49.5L425 0ZM174 49.5L99.5 49.5L99.5 125L124.5 125L124.5 92.5L156.5 125L174 125L174 106.5L140.5 74L174 74L174 49.5ZM223.5 49.5L200 49.5L200 125L274.5 125L274.5 100L223.5 100L223.5 49.5ZM300 49.5L300 125L374 125L374 49.5L349.5 49.5L349.5 100L325 100L325 49.5L300 49.5ZM450 100L425 100L425 74.75L450 74.75L450 100ZM524.5 100L499.5 100L499.5 125L524.5 125L524.5 100Z" fill="#FFFFFF" fill-opacity="1.000000" fill-rule="evenodd"/>
	<path id="VRCub-white" d="M99.5 0L99.5 25.5L24.5 125L0 125L0 0L24.5 0L24.5 78L80 0L99.5 0L174 0L174 25.5L99.5 25.5M174 49.5L174 74L140.5 74L174 106.5L174 125L156.5 125L124.5 92.5L124.5 125L99.5 125L99.5 49.5L174 49.5ZM274.5 0L274.5 25.5L200 25.5L200 0L274.5 0ZM223.5 49.5L223.5 100L274.5 100L274.5 125L200 125L200 49.5L223.5 49.5ZM300 125L374 125L374 49.5L349.5 49.5L349.5 100L325 100L325 49.5L300 49.5L300 125ZM425 0L425 49.5L450 49.5L474.5 49.5L474.5 125L400 125L400 49.5L400 0L425 0ZM450 100L450 74.75L425 74.75L425 100L450 100ZM524.5 100L524.5 125L499.5 125L499.5 100L524.5 100Z" stroke="#000000" stroke-opacity="0" stroke-width="1.000000"/>
</svg>
