<svg width="923.998047" height="175.375000" viewBox="0 0 923.998 175.375" fill="none" xmlns="http://www.w3.org/2000/svg" xmlns:xlink="http://www.w3.org/1999/xlink">
	<desc>
			Created with Pixso.
	</desc>
	<defs/>
	<path id="VRCub.PASS-blue" d="M99.5 0L80 0L24.5 78L24.5 0L0 0L0 125L24.5 125L99.5 25.5L174 25.5L174 0L99.5 0ZM274.5 0L200 0L200 25.5L274.5 25.5L274.5 0ZM425 0L400 0L400 125L474.5 125L474.5 49.5L425 49.5L425 0ZM174 49.5L99.5 49.5L99.5 125L124.5 125L124.5 92.5L156.5 125L174 125L174 106.5L140.5 74L174 74L174 49.5ZM223.5 49.5L200 49.5L200 125L274.5 125L274.5 100L223.5 100L223.5 49.5ZM300 49.5L300 125L374 125L374 49.5L349.5 49.5L349.5 100L325 100L325 49.5L300 49.5ZM725 49.5L650 49.5L650 125L737 125L725 100L725 49.5ZM824.5 49.5L750 49.5L750 124.25L799 124.25L799 149.5L750 149.5L750 174.5L824.5 174.5L824.5 99L774 99L774 74.5L824.5 74.5L824.5 49.5ZM923.99 49.5L849.49 49.5L849.49 124.25L898.49 124.25L898.49 149.5L849.49 149.5L849.49 174.5L923.99 174.5L923.99 99L873.49 99L873.49 74.5L923.99 74.5L923.99 49.5ZM624.5 50.37L548.5 50.37L548.5 175.37L573 175.37L573 125.12L624.5 125.12L624.5 50.37ZM450 100L425 100L425 74.75L450 74.75L450 100ZM675 100L675 74.75L700 74.75L700 100L675 100ZM573 99.87L573 75.37L598.5 75.37L598.5 99.87L573 99.87ZM524.5 100L499.5 100L499.5 125L524.5 125L524.5 100Z" fill="#007FFF" fill-opacity="1.000000" fill-rule="evenodd"/>
	<path id="VRCub.PASS-blue" d="M99.5 0L99.5 25.5L24.5 125L0 125L0 0L24.5 0L24.5 78L80 0L99.5 0L174 0L174 25.5L99.5 25.5M174 49.5L174 74L140.5 74L174 106.5L174 125L156.5 125L124.5 92.5L124.5 125L99.5 125L99.5 49.5L174 49.5ZM274.5 0L274.5 25.5L200 25.5L200 0L274.5 0ZM223.5 49.5L223.5 100L274.5 100L274.5 125L200 125L200 49.5L223.5 49.5ZM300 125L374 125L374 49.5L349.5 49.5L349.5 100L325 100L325 49.5L300 49.5L300 125ZM425 0L425 49.5L450 49.5L474.5 49.5L474.5 125L400 125L400 49.5L400 0L425 0ZM450 100L450 74.75L425 74.75L425 100L450 100ZM524.5 100L524.5 125L499.5 125L499.5 100L524.5 100ZM624.5 50.37L624.5 125.12L573 125.12L573 175.37L548.5 175.37L548.5 50.37L624.5 50.37ZM573 99.87L598.5 99.87L598.5 75.37L573 75.37L573 99.87ZM725 49.5L725 100L737 125L725 125L650 125L650 49.5L725 49.5ZM675 100L700 100L700 74.75L675 74.75L675 100ZM824.5 124.25L799 124.25L750 124.25L750 99L750 74.5L750 49.5L824.5 49.5L824.5 74.5L774 74.5L750 74.5M750 99L774 99L824.5 99L824.5 124.25L824.5 149.37L824.5 174.5L750 174.5L750 149.5L799 149.5L824.5 149.37M799 149.5L799 124.25M923.99 124.25L898.49 124.25L849.49 124.25L849.49 99L849.49 74.5L849.49 49.5L923.99 49.5L923.99 74.5L873.49 74.5L849.49 74.5M849.49 99L873.49 99L923.99 99L923.99 124.25L923.99 149.5L923.99 174.5L849.49 174.5L849.49 149.5L898.49 149.5L923.99 149.5M849.49 49.5L923.99 49.5M849.49 149.5L898.49 149.5M849.49 174.5L849.49 149.5M923.99 174.5L849.49 174.5M923.99 74.5L873.49 74.5M923.99 49.5L923.99 74.5M898.49 124.25L898.49 149.5M774 74.5L774 99M873.49 99L873.49 74.5" stroke="#000000" stroke-opacity="0" stroke-width="1.000000"/>
</svg>
